<?xml version="1.0" encoding="utf-8"?>
<!-- Generator: Adobe Illustrator 16.0.0, SVG Export Plug-In . SVG Version: 6.00 Build 0)  -->
<!DOCTYPE svg PUBLIC "-//W3C//DTD SVG 1.1//EN" "http://www.w3.org/Graphics/SVG/1.1/DTD/svg11.dtd">
<svg version="1.1" id="Capa_1" xmlns="http://www.w3.org/2000/svg" xmlns:xlink="http://www.w3.org/1999/xlink" x="0px" y="0px"
	 width="140.334px" height="140.333px" viewBox="18.834 -8.833 140.334 140.333"
	 enable-background="new 18.834 -8.833 140.334 140.333" xml:space="preserve">
<image display="none" overflow="visible" enable-background="new    " width="1366" height="768" xlink:href="2938A3BB.jpeg"  transform="matrix(1 0 0 1 -582.9995 -284.0005)">
</image>
<path fill="none" stroke="#521F71" stroke-width="4" stroke-miterlimit="10" d="M124.001,43.575h2.585
	c2.605,0,4.715,1.907,4.715,4.26V73"/>
<path fill="none" stroke="#521F71" stroke-width="4" stroke-miterlimit="10" d="M42.699,72.75V47.834c0-2.353,2.111-4.26,4.714-4.26
	H53"/>
<path fill="none" stroke="#521F71" stroke-width="4" stroke-miterlimit="10" d="M142.834,77.996c0-2.736-1.945-4.957-4.342-4.957
	H37.176c-2.398,0-4.342,2.221-4.342,4.957v46.475c0,2.738,1.944,4.957,4.342,4.957h101.316c2.396,0,4.342-2.219,4.342-4.957V77.996z
	"/>
<ellipse fill="none" stroke="#521F71" stroke-width="4" stroke-miterlimit="10" cx="88.03" cy="33.448" rx="36.4" ry="40.306"/>
<path fill="none" stroke="#521F71" stroke-width="4" stroke-miterlimit="10" d="M105.174,83.555c0-4.785-2.904-8.662-6.488-8.662
	H79.221c-3.584,0-6.488,3.877-6.488,8.662v15.154c0,4.785,2.904,8.662,6.488,8.662h19.464c3.584,0,6.488-3.877,6.488-8.662V83.555z"
	/>
<ellipse fill="none" stroke="#521F71" stroke-width="4" stroke-miterlimit="10" cx="88.75" cy="33.25" rx="27.775" ry="24.541"/>
<path fill="none" stroke="#521F71" stroke-width="4" stroke-miterlimit="10" d="M55.008,76.723c0-1.934-1.485-3.5-3.317-3.5l0,0
	c-1.832,0-3.317,1.566-3.317,3.5v48.82c0,1.932,1.485,3.5,3.317,3.5l0,0c1.833,0,3.317-1.568,3.317-3.5V76.723z"/>
<path fill="none" stroke="#521F71" stroke-width="4" stroke-miterlimit="10" d="M127.643,76.723c0-1.934-1.482-3.5-3.315-3.5l0,0
	c-1.833,0-3.318,1.566-3.318,3.5v48.82c0,1.932,1.485,3.5,3.318,3.5l0,0c1.833,0,3.315-1.568,3.315-3.5V76.723z"/>
<image display="none" overflow="visible" enable-background="new    " width="1200" height="1200" xlink:href="2938A3B9.png"  transform="matrix(0.1699 0 0 0.1699 -1.9507 -1.9497)">
</image>
<line fill="none" stroke="#521F71" stroke-width="4" stroke-miterlimit="10" x1="72.5" y1="91.25" x2="104.25" y2="91.25"/>
</svg>
