<?xml version="1.0" encoding="utf-8"?>
<!-- Generator: Adobe Illustrator 16.0.0, SVG Export Plug-In . SVG Version: 6.00 Build 0)  -->
<!DOCTYPE svg PUBLIC "-//W3C//DTD SVG 1.1//EN" "http://www.w3.org/Graphics/SVG/1.1/DTD/svg11.dtd">
<svg version="1.1" id="Capa_1" xmlns="http://www.w3.org/2000/svg" xmlns:xlink="http://www.w3.org/1999/xlink" x="0px" y="0px"
	 width="1200px" height="2000px" viewBox="0 0 1200 2000" enable-background="new 0 0 1200 2000" xml:space="preserve">
<linearGradient id="SVGID_1_" gradientUnits="userSpaceOnUse" x1="799.2668" y1="-253.2327" x2="799.2666" y2="1323.4902" gradientTransform="matrix(1 0 0 -1 -197.5996 1680.0991)">
	<stop  offset="0" style="stop-color:#A633AB"/>
	<stop  offset="1" style="stop-color:#40167D"/>
</linearGradient>
<rect x="-33.333" y="-3.333" fill="url(#SVGID_1_)" width="1269.999" height="2043.333"/>
<polygon fill="#FFFFFF" points="107.535,1280.569 108.131,1286.649 114.211,1287.244 108.131,1287.842 107.535,1293.92 
	106.939,1287.842 100.86,1287.244 106.939,1286.649 "/>
<polygon fill="#FFFFFF" points="291.545,1168.538 292.141,1174.618 298.22,1175.213 292.141,1175.809 291.545,1181.888 
	290.949,1175.809 284.869,1175.213 290.949,1174.618 "/>
<polygon fill="#FFFFFF" points="91.909,985.154 92.505,991.234 98.585,991.829 92.505,992.426 91.909,998.505 91.312,992.426 
	85.234,991.829 91.312,991.234 "/>
<polygon fill="#FFFFFF" points="426.261,924.204 426.858,930.284 432.937,930.88 426.858,931.476 426.261,937.555 425.666,931.476 
	419.586,930.88 425.666,930.284 "/>
<polygon fill="#FFFFFF" points="118.031,758.189 118.626,764.268 124.706,764.864 118.626,765.461 118.031,771.54 117.434,765.461 
	111.355,764.864 117.434,764.268 "/>
<polygon fill="#FFFFFF" points="276.5,1003.149 277.096,1009.228 283.175,1009.825 277.096,1010.421 276.5,1016.5 275.904,1010.421 
	269.824,1009.825 275.904,1009.228 "/>
<polygon fill="#FFFFFF" points="432.098,1220.827 432.694,1226.907 438.774,1227.502 432.694,1228.099 432.098,1234.177 
	431.502,1228.099 425.424,1227.502 431.502,1226.907 "/>
<polygon fill="#FFFFFF" points="229.562,1479.171 230.158,1485.25 236.238,1485.845 230.158,1486.442 229.562,1492.521 
	228.966,1486.442 222.886,1485.845 228.966,1485.25 "/>
<polygon fill="#FFFFFF" points="414.453,1824.976 415.05,1831.056 421.129,1831.652 415.05,1832.249 414.453,1838.327 
	413.857,1832.249 407.778,1831.652 413.857,1831.056 "/>
<polygon fill="#FFFFFF" points="426.263,1538.332 426.861,1544.412 432.939,1545.008 426.861,1545.604 426.263,1551.683 
	425.669,1545.604 419.589,1545.008 425.669,1544.412 "/>
<polygon fill="#FFFFFF" points="599.045,1842.971 599.641,1849.051 605.719,1849.646 599.641,1850.243 599.045,1856.322 
	598.448,1850.243 592.369,1849.646 598.448,1849.051 "/>
<polygon fill="#FFFFFF" points="832.815,908.294 833.41,914.373 839.489,914.969 833.41,915.565 832.815,921.645 832.217,915.565 
	826.139,914.969 832.217,914.373 "/>
<polygon fill="#FFFFFF" points="87.401,2016.284 88.198,2024.419 96.334,2025.217 88.198,2026.014 87.401,2034.15 86.603,2026.014 
	78.468,2025.217 86.603,2024.419 "/>
<polygon fill="#FFFFFF" points="602.68,852.76 603.276,858.839 609.356,859.435 603.276,860.031 602.68,866.11 602.084,860.031 
	596.004,859.435 602.084,858.839 "/>
<polygon fill="#FFFFFF" points="200.46,1671.842 201.056,1677.921 207.135,1678.516 201.056,1679.113 200.46,1685.192 
	199.864,1679.113 193.784,1678.516 199.864,1677.921 "/>
<polygon fill="#FFFFFF" points="65.008,1810.465 65.604,1816.544 71.684,1817.14 65.604,1817.736 65.008,1823.815 64.412,1817.736 
	58.333,1817.14 64.412,1816.544 "/>
<polygon fill="#FFFFFF" points="612.49,1655.18 613.086,1661.26 619.166,1661.856 613.086,1662.452 612.49,1668.532 
	611.895,1662.452 605.815,1661.856 611.895,1661.26 "/>
<polygon fill="#FFFFFF" points="796.5,1543.15 797.096,1549.229 803.176,1549.824 797.096,1550.421 796.5,1556.5 795.905,1550.421 
	789.824,1549.824 795.905,1549.229 "/>
<polygon fill="#FFFFFF" points="617.133,1276.725 617.729,1282.805 623.809,1283.4 617.729,1283.997 617.133,1290.076 
	616.535,1283.997 610.457,1283.4 616.535,1282.805 "/>
<polygon fill="#FFFFFF" points="951.485,1215.775 952.08,1221.855 958.16,1222.451 952.08,1223.048 951.485,1229.127 
	950.889,1223.048 944.811,1222.451 950.889,1221.855 "/>
<polygon fill="#FFFFFF" points="643.254,1049.76 643.85,1055.84 649.93,1056.435 643.85,1057.032 643.254,1063.111 
	642.656,1057.032 636.578,1056.435 642.656,1055.84 "/>
<polygon fill="#FFFFFF" points="781.455,1377.76 782.053,1383.84 788.131,1384.436 782.053,1385.032 781.455,1391.111 
	780.86,1385.032 774.78,1384.436 780.86,1383.84 "/>
<polygon fill="#FFFFFF" points="937.055,1595.439 937.651,1601.518 943.729,1602.113 937.651,1602.711 937.055,1608.789 
	936.457,1602.711 930.379,1602.113 936.457,1601.518 "/>
<polygon fill="#FFFFFF" points="769.096,1830.421 769.692,1836.5 775.772,1837.096 769.692,1837.692 769.096,1843.772 
	768.498,1837.692 762.42,1837.096 768.498,1836.5 "/>
<polygon fill="#FFFFFF" points="939.676,2116.548 940.274,2122.627 946.352,2123.223 940.274,2123.819 939.676,2129.899 
	939.08,2123.819 933,2123.223 939.08,2122.627 "/>
<polygon fill="#FFFFFF" points="965.797,1889.583 966.395,1895.662 972.473,1896.259 966.395,1896.854 965.797,1902.933 
	965.201,1896.854 959.123,1896.259 965.201,1895.662 "/>
<polygon fill="#FFFFFF" points="1124.268,2134.543 1124.864,2140.623 1130.944,2141.218 1124.864,2141.813 1124.268,2147.893 
	1123.672,2141.813 1117.592,2141.218 1123.672,2140.623 "/>
<polygon fill="#FFFFFF" points="1123.262,1522.786 1123.858,1528.865 1129.938,1529.462 1123.858,1530.057 1123.262,1536.137 
	1122.666,1530.057 1116.586,1529.462 1122.666,1528.865 "/>
<polygon fill="#FFFFFF" points="1127.903,1144.331 1128.498,1150.411 1134.578,1151.006 1128.498,1151.602 1127.903,1157.681 
	1127.307,1151.602 1121.227,1151.006 1127.307,1150.411 "/>
<polygon fill="#FFFFFF" points="739.994,2023.093 740.59,2029.172 746.668,2029.766 740.59,2030.362 739.994,2036.442 
	739.397,2030.362 733.319,2029.766 739.397,2029.172 "/>
<polygon fill="#FFFFFF" points="590.232,2102.036 590.827,2108.115 596.908,2108.711 590.827,2109.307 590.232,2115.386 
	589.635,2109.307 583.556,2108.711 589.635,2108.115 "/>
</svg>
