<?xml version="1.0" encoding="utf-8"?>
<!-- Generator: Adobe Illustrator 16.0.0, SVG Export Plug-In . SVG Version: 6.00 Build 0)  -->
<!DOCTYPE svg PUBLIC "-//W3C//DTD SVG 1.1//EN" "http://www.w3.org/Graphics/SVG/1.1/DTD/svg11.dtd">
<svg version="1.1" id="Capa_1" xmlns="http://www.w3.org/2000/svg" xmlns:xlink="http://www.w3.org/1999/xlink" x="0px" y="0px"
	 width="1200px" height="2000px" viewBox="0 0 1200 2000" enable-background="new 0 0 1200 2000" xml:space="preserve">
<linearGradient id="SVGID_1_" gradientUnits="userSpaceOnUse" x1="846.8665" y1="924.1311" x2="846.8662" y2="-652.5913" gradientTransform="matrix(1 0 0 1 -245.1997 1009.1992)">
	<stop  offset="0" style="stop-color:#A633AB"/>
	<stop  offset="1" style="stop-color:#40167D"/>
</linearGradient>
<rect x="-33.333" y="-3.333" fill="url(#SVGID_1_)" width="1269.999" height="2043.333"/>
<g opacity="0.7">
	<polygon fill="#FFFFFF" points="134.745,1219.484 135.341,1225.564 141.421,1226.159 135.341,1226.758 134.745,1232.836 
		134.149,1226.758 128.07,1226.159 134.149,1225.564 	"/>
	<polygon fill="#FFFFFF" points="119.119,924.069 119.715,930.149 125.795,930.744 119.715,931.342 119.119,937.421 
		118.522,931.342 112.444,930.744 118.522,930.149 	"/>
	<polygon fill="#FFFFFF" points="145.24,697.104 145.836,703.183 151.916,703.779 145.836,704.377 145.24,710.455 144.644,704.377 
		138.565,703.779 144.644,703.183 	"/>
	<polygon fill="#FFFFFF" points="459.308,1159.742 459.904,1165.822 465.984,1166.417 459.904,1167.014 459.308,1173.093 
		458.712,1167.014 452.634,1166.417 458.712,1165.822 	"/>
	<polygon fill="#FFFFFF" points="256.772,1418.087 257.368,1424.165 263.448,1424.76 257.368,1425.357 256.772,1431.436 
		256.176,1425.357 250.096,1424.76 256.176,1424.165 	"/>
	<polygon fill="#FFFFFF" points="798.776,874.161 799.371,880.24 805.449,880.836 799.371,881.432 798.776,887.512 798.178,881.432 
		792.1,880.836 798.178,880.24 	"/>
	<polygon fill="#FFFFFF" points="318.089,1874.677 318.886,1882.813 327.023,1883.611 318.886,1884.408 318.089,1892.544 
		317.291,1884.408 309.156,1883.611 317.291,1882.813 	"/>
	<polygon fill="#FFFFFF" points="392.974,815.627 393.57,821.706 399.65,822.302 393.57,822.897 392.974,828.976 392.378,822.897 
		386.298,822.302 392.378,821.706 	"/>
	<polygon fill="#FFFFFF" points="227.67,1610.758 228.266,1616.837 234.345,1617.431 228.266,1618.028 227.67,1624.107 
		227.073,1618.028 220.994,1617.431 227.073,1616.837 	"/>
	<polygon fill="#FFFFFF" points="92.218,1749.381 92.814,1755.46 98.894,1756.055 92.814,1756.651 92.218,1762.73 91.622,1756.651 
		85.543,1756.055 91.622,1755.46 	"/>
	<polygon fill="#FFFFFF" points="639.699,1594.095 640.296,1600.176 646.376,1600.771 640.296,1601.367 639.699,1607.447 
		639.105,1601.367 633.025,1600.771 639.105,1600.176 	"/>
	<polygon fill="#FFFFFF" points="978.695,1154.69 979.289,1160.77 985.369,1161.366 979.289,1161.964 978.695,1168.042 
		978.099,1161.964 972.021,1161.366 978.099,1160.77 	"/>
	<polygon fill="#FFFFFF" points="808.664,1316.676 809.263,1322.756 815.341,1323.351 809.263,1323.947 808.664,1330.026 
		808.07,1323.947 801.99,1323.351 808.07,1322.756 	"/>
	<polygon fill="#FFFFFF" points="964.265,1534.354 964.861,1540.433 970.939,1541.028 964.861,1541.627 964.265,1547.704 
		963.666,1541.627 957.589,1541.028 963.666,1540.433 	"/>
	<polygon fill="#FFFFFF" points="796.306,1769.337 796.902,1775.415 802.982,1776.011 796.902,1776.607 796.306,1782.687 
		795.707,1776.607 789.63,1776.011 795.707,1775.415 	"/>
	<polygon fill="#FFFFFF" points="966.886,2055.464 967.484,2061.542 973.562,2062.138 967.484,2062.734 966.886,2068.814 
		966.289,2062.734 960.21,2062.138 966.289,2061.542 	"/>
	<polygon fill="#FFFFFF" points="993.007,1828.499 993.605,1834.577 999.683,1835.175 993.605,1835.769 993.007,1841.848 
		992.41,1835.769 986.332,1835.175 992.41,1834.577 	"/>
	<polygon fill="#FFFFFF" points="1151.478,2073.458 1152.073,2079.538 1158.154,2080.134 1152.073,2080.728 1151.478,2086.808 
		1150.882,2080.728 1144.802,2080.134 1150.882,2079.538 	"/>
	<polygon fill="#FFFFFF" points="1150.472,1461.701 1151.068,1467.78 1157.148,1468.378 1151.068,1468.972 1150.472,1475.052 
		1149.876,1468.972 1143.796,1468.378 1149.876,1467.78 	"/>
	<polygon fill="#FFFFFF" points="1155.113,1083.247 1155.708,1089.326 1161.787,1089.922 1155.708,1090.517 1155.113,1096.596 
		1154.517,1090.517 1148.437,1089.922 1154.517,1089.326 	"/>
	<polygon fill="#FFFFFF" points="767.203,1962.009 767.8,1968.088 773.878,1968.681 767.8,1969.277 767.203,1975.357 
		766.607,1969.277 760.529,1968.681 766.607,1968.088 	"/>
	<g>
		<polygon fill="#FFFFFF" points="617.442,2040.951 618.036,2047.03 624.117,2047.626 618.036,2048.222 617.442,2054.302 
			616.845,2048.222 610.766,2047.626 616.845,2047.03 		"/>
	</g>
</g>
</svg>
