<?xml version="1.0" encoding="utf-8"?>
<!-- Generator: Adobe Illustrator 16.0.0, SVG Export Plug-In . SVG Version: 6.00 Build 0)  -->
<!DOCTYPE svg PUBLIC "-//W3C//DTD SVG 1.1//EN" "http://www.w3.org/Graphics/SVG/1.1/DTD/svg11.dtd">
<svg version="1.1" id="Capa_1" xmlns="http://www.w3.org/2000/svg" xmlns:xlink="http://www.w3.org/1999/xlink" x="0px" y="0px"
	 width="358.5px" height="106px" viewBox="58.605 63.763 358.5 106" enable-background="new 58.605 63.763 358.5 106"
	 xml:space="preserve">
<rect x="30.105" y="47.763" display="none" stroke="#000000" stroke-miterlimit="10" width="449" height="171"/>
<g id="Capa_1_1_" display="none">
	<path display="inline" opacity="0.5" fill="#020202" enable-background="new    " d="M370.001,151H110c0,0-45,1-45-32
		c0-37.5,45-35,45-35h260.001V151z"/>
	<path display="inline" fill="none" stroke="#FFFFFF" stroke-width="4" stroke-miterlimit="10" d="M360.001,151H110c0,0-45,1-45-32
		c0-37.5,45-35,45-35h250.501L360.001,151z"/>
	<g display="inline">
		<circle cx="366.113" cy="116.96" r="46.483"/>
		<g>
			<g>
				<defs>
					<circle id="SVGID_2_" cx="362.412" cy="113.26" r="46.483"/>
				</defs>
				<clipPath id="SVGID_4_">
					<use xlink:href="#SVGID_2_"  overflow="visible"/>
				</clipPath>
				<g clip-path="url(#SVGID_4_)">
					<circle fill="#E2DED0" cx="362.412" cy="113.26" r="46.483"/>
					
						<circle opacity="0.5" fill="#7F7F7F" stroke="#AFA78E" stroke-width="2" stroke-miterlimit="10" enable-background="new    " cx="393.401" cy="128.292" r="3.469"/>
					
						<circle opacity="0.5" fill="#7F7F7F" stroke="#AFA78E" stroke-width="2" stroke-miterlimit="10" enable-background="new    " cx="385.076" cy="113.03" r="7.4"/>
					
						<circle opacity="0.5" fill="#7F7F7F" stroke="#AFA78E" stroke-width="2" stroke-miterlimit="10" enable-background="new    " cx="371.302" cy="148.671" r="2.608"/>
					
						<circle opacity="0.5" fill="#7F7F7F" stroke="#AFA78E" stroke-width="2" stroke-miterlimit="10" enable-background="new    " cx="353.357" cy="146.692" r="2.608"/>
					<g opacity="0.5">
						<path fill="#7F7F7F" d="M311.458,102.857c-1.771,1.463-1.658,6.01-1.673,8.025c-0.034,4.453,1.507,9.016,2.999,13.176
							c1.035,2.885,2.797,7.157,5.286,9.074c1.722,1.325,3.568,0.921,5.708,1.622c3.314,1.084,3.114,5.916,6.062,8.16
							c1.638,1.245,4.896,2.438,6.877,0.999c1.819-1.323,1.379-3.98,1.032-5.861c-0.258-1.396-0.436-2.874-0.939-4.198
							c-0.4-1.05-1.375-1.867-1.757-2.801c-1.196-2.927,0.252-4.193,2.552-5.681c4.272-2.763,4.69-7.07,4.732-11.764
							c0.016-1.826-0.06-3.383,1.756-4.129c2.348-0.967,6.106,0.004,7.908,1.521c2.919,2.458,6.93,5.554,8.963,0.422
							c0.977-2.464-0.196-7.657-2.561-8.785c3.063-0.031,5.085,4.236,7.745,5.246c2.323,0.884,5.43,0.979,6.618-1.479
							c0.539-1.114,0.976-3.851,0.455-4.972c-0.736-1.582-2.196-1.416-3.865-2.042c-4.078-1.531-5.102-1.941-4.374-6.323
							c0.253-1.521,0.922-3.325-0.306-4.585c-2.051-2.102-6.635-0.521-8.811,0.119c-2.89,0.848-5.141,1.905-6.132,2.14
							c-1.705,0.401-5.996-2.198-7.806-2.492c-2.785-0.451-4.867,2.677-7.46,1.729c-1.102-0.401-2.186-0.854-3.502-0.938
							c-1.569-0.102-2.417,0.086-3.755,0.733c-1.013,0.49-1.532,0.958-2.121,1.853c-0.325,0.493-0.683,2.258-1,2.509
							c-2.547,2.029-6.547-2.465-9.219-1.277c-1.783,0.794-2.994,4.384-3.19,6.225c-0.129,1.205,0.648,2.62,0.037,3.419"/>
						<path fill="none" stroke="#AFA78E" stroke-width="2" stroke-miterlimit="10" d="M311.458,102.857
							c-1.771,1.463-1.658,6.01-1.673,8.025c-0.034,4.453,1.507,9.016,2.999,13.176c1.035,2.885,2.797,7.157,5.286,9.074
							c1.722,1.325,3.568,0.921,5.708,1.622c3.314,1.084,3.114,5.916,6.062,8.16c1.638,1.245,4.896,2.438,6.877,0.999
							c1.819-1.323,1.379-3.98,1.032-5.861c-0.258-1.396-0.436-2.874-0.939-4.198c-0.4-1.05-1.375-1.867-1.757-2.801
							c-1.196-2.927,0.252-4.193,2.552-5.681c4.272-2.763,4.69-7.07,4.732-11.764c0.016-1.826-0.06-3.383,1.756-4.129
							c2.348-0.967,6.106,0.004,7.908,1.521c2.919,2.458,6.93,5.554,8.963,0.422c0.977-2.464-0.196-7.657-2.561-8.785
							c3.063-0.031,5.085,4.236,7.745,5.246c2.323,0.884,5.43,0.979,6.618-1.479c0.539-1.114,0.976-3.851,0.455-4.972
							c-0.736-1.582-2.196-1.416-3.865-2.042c-4.078-1.531-5.102-1.941-4.374-6.323c0.253-1.521,0.922-3.325-0.306-4.585
							c-2.051-2.102-6.635-0.521-8.811,0.119c-2.89,0.848-5.141,1.905-6.132,2.14c-1.705,0.401-5.996-2.198-7.806-2.492
							c-2.785-0.451-4.867,2.677-7.46,1.729c-1.102-0.401-2.186-0.854-3.502-0.938c-1.569-0.102-2.417,0.086-3.755,0.733
							c-1.013,0.49-1.532,0.958-2.121,1.853c-0.325,0.493-0.683,2.258-1,2.509c-2.547,2.029-6.547-2.465-9.219-1.277
							c-1.783,0.794-2.994,4.384-3.19,6.225c-0.129,1.205,0.648,2.62,0.037,3.419"/>
					</g>
				</g>
			</g>
			<g>
				
					<circle id="SVGID_1_" fill="none" stroke="#FFFFFF" stroke-width="3" stroke-miterlimit="10" cx="362.412" cy="113.26" r="46.483"/>
			</g>
		</g>
	</g>
</g>
<g id="Capa_1_copia">
	<path opacity="0.5" fill="#020202" enable-background="new    " d="M235,151H110c0,0-45,1-45-32c0-37.5,45-35,45-35h125V151z"/>
	<path fill="none" stroke="#FFFFFF" stroke-width="4" stroke-miterlimit="10" d="M221.5,151H110c0,0-45,1-45-32c0-37.5,45-35,45-35
		h114"/>
	<path fill="none" stroke="#FFFFFF" stroke-width="4" stroke-miterlimit="10" d="M230,151h111.501c0,0,45,1,45-32
		c0-37.5-45-35-45-35H227.5"/>
	<g>
		<circle cx="232.701" cy="116.96" r="46.483"/>
		<g>
			<g>
				<defs>
					<circle id="SVGID_6_" cx="229" cy="113.26" r="46.483"/>
				</defs>
				<clipPath id="SVGID_7_">
					<use xlink:href="#SVGID_6_"  overflow="visible"/>
				</clipPath>
				<g clip-path="url(#SVGID_7_)">
					<circle fill="#E2DED0" cx="229" cy="113.26" r="46.483"/>
					
						<circle opacity="0.5" fill="#7F7F7F" stroke="#AFA78E" stroke-width="2" stroke-miterlimit="10" enable-background="new    " cx="259.989" cy="128.292" r="3.469"/>
					
						<circle opacity="0.5" fill="#7F7F7F" stroke="#AFA78E" stroke-width="2" stroke-miterlimit="10" enable-background="new    " cx="251.664" cy="113.03" r="7.4"/>
					
						<circle opacity="0.5" fill="#7F7F7F" stroke="#AFA78E" stroke-width="2" stroke-miterlimit="10" enable-background="new    " cx="237.89" cy="148.671" r="2.608"/>
					
						<circle opacity="0.5" fill="#7F7F7F" stroke="#AFA78E" stroke-width="2" stroke-miterlimit="10" enable-background="new    " cx="219.945" cy="146.692" r="2.608"/>
					<g opacity="0.5">
						<path fill="#7F7F7F" d="M178.046,102.857c-1.771,1.463-1.658,6.01-1.673,8.025c-0.035,4.453,1.506,9.016,2.999,13.176
							c1.035,2.885,2.797,7.157,5.286,9.074c1.721,1.325,3.568,0.921,5.708,1.622c3.314,1.084,3.114,5.916,6.062,8.16
							c1.638,1.245,4.896,2.438,6.877,0.999c1.819-1.323,1.379-3.98,1.032-5.861c-0.258-1.396-0.436-2.874-0.939-4.198
							c-0.4-1.05-1.375-1.867-1.757-2.801c-1.196-2.927,0.252-4.193,2.552-5.681c4.271-2.763,4.689-7.07,4.731-11.764
							c0.017-1.826-0.059-3.383,1.757-4.129c2.348-0.967,6.106,0.004,7.907,1.521c2.919,2.458,6.931,5.554,8.963,0.422
							c0.978-2.464-0.195-7.657-2.56-8.785c3.063-0.031,5.085,4.236,7.745,5.246c2.323,0.884,5.43,0.979,6.618-1.479
							c0.539-1.114,0.976-3.851,0.455-4.972c-0.736-1.582-2.196-1.416-3.865-2.042c-4.078-1.531-5.103-1.941-4.374-6.323
							c0.253-1.521,0.922-3.325-0.306-4.585c-2.052-2.102-6.636-0.521-8.811,0.119c-2.89,0.848-5.141,1.905-6.132,2.14
							c-1.705,0.401-5.996-2.198-7.806-2.492c-2.785-0.451-4.867,2.677-7.46,1.729c-1.102-0.401-2.186-0.854-3.502-0.938
							c-1.569-0.102-2.417,0.086-3.756,0.733c-1.012,0.49-1.531,0.958-2.12,1.853c-0.325,0.493-0.683,2.258-1,2.509
							c-2.548,2.029-6.548-2.465-9.219-1.277c-1.784,0.794-2.995,4.384-3.19,6.225c-0.129,1.205,0.648,2.62,0.037,3.419"/>
						<path fill="none" stroke="#AFA78E" stroke-width="2" stroke-miterlimit="10" d="M178.046,102.857
							c-1.771,1.463-1.658,6.01-1.673,8.025c-0.035,4.453,1.506,9.016,2.999,13.176c1.035,2.885,2.797,7.157,5.286,9.074
							c1.721,1.325,3.568,0.921,5.708,1.622c3.314,1.084,3.114,5.916,6.062,8.16c1.638,1.245,4.896,2.438,6.877,0.999
							c1.819-1.323,1.379-3.98,1.032-5.861c-0.258-1.396-0.436-2.874-0.939-4.198c-0.4-1.05-1.375-1.867-1.757-2.801
							c-1.196-2.927,0.252-4.193,2.552-5.681c4.271-2.763,4.689-7.07,4.731-11.764c0.017-1.826-0.059-3.383,1.757-4.129
							c2.348-0.967,6.106,0.004,7.907,1.521c2.919,2.458,6.931,5.554,8.963,0.422c0.978-2.464-0.195-7.657-2.56-8.785
							c3.063-0.031,5.085,4.236,7.745,5.246c2.323,0.884,5.43,0.979,6.618-1.479c0.539-1.114,0.976-3.851,0.455-4.972
							c-0.736-1.582-2.196-1.416-3.865-2.042c-4.078-1.531-5.103-1.941-4.374-6.323c0.253-1.521,0.922-3.325-0.306-4.585
							c-2.052-2.102-6.636-0.521-8.811,0.119c-2.89,0.848-5.141,1.905-6.132,2.14c-1.705,0.401-5.996-2.198-7.806-2.492
							c-2.785-0.451-4.867,2.677-7.46,1.729c-1.102-0.401-2.186-0.854-3.502-0.938c-1.569-0.102-2.417,0.086-3.756,0.733
							c-1.012,0.49-1.531,0.958-2.12,1.853c-0.325,0.493-0.683,2.258-1,2.509c-2.548,2.029-6.548-2.465-9.219-1.277
							c-1.784,0.794-2.995,4.384-3.19,6.225c-0.129,1.205,0.648,2.62,0.037,3.419"/>
					</g>
				</g>
			</g>
			<g>
				<circle id="SVGID_3_" fill="none" stroke="#FFFFFF" stroke-width="3" stroke-miterlimit="10" cx="229" cy="113.26" r="46.483"/>
			</g>
		</g>
	</g>
</g>
<g id="Capa_1_copia_2" display="none">
	<path display="inline" fill="none" stroke="#FFFFFF" stroke-width="3" stroke-miterlimit="10" d="M230,151H110c0,0-45,1-45-32
		c0-37.5,45-35,45-35h117.5"/>
	<path display="inline" fill="none" stroke="#FFFFFF" stroke-width="3" stroke-miterlimit="10" d="M230,151h111.501c0,0,45,1,45-32
		c0-37.5-45-35-45-35H227.5"/>
	<g display="inline">
		<circle cx="112" cy="116.96" r="46.483"/>
		<g>
			<g>
				<defs>
					<circle id="SVGID_8_" cx="108.3" cy="113.26" r="46.483"/>
				</defs>
				<clipPath id="SVGID_9_">
					<use xlink:href="#SVGID_8_"  overflow="visible"/>
				</clipPath>
				<g clip-path="url(#SVGID_9_)">
					<circle fill="#E2DED0" cx="108.3" cy="113.26" r="46.483"/>
					
						<circle opacity="0.5" fill="#7F7F7F" stroke="#AFA78E" stroke-width="1.3876" stroke-miterlimit="10" enable-background="new    " cx="139.288" cy="128.292" r="3.469"/>
					
						<circle opacity="0.5" fill="#7F7F7F" stroke="#AFA78E" stroke-width="1.3876" stroke-miterlimit="10" enable-background="new    " cx="130.964" cy="113.03" r="7.4"/>
					
						<circle opacity="0.5" fill="#7F7F7F" stroke="#AFA78E" stroke-width="1.3876" stroke-miterlimit="10" enable-background="new    " cx="117.189" cy="148.671" r="2.608"/>
					
						<circle opacity="0.5" fill="#7F7F7F" stroke="#AFA78E" stroke-width="1.3876" stroke-miterlimit="10" enable-background="new    " cx="99.244" cy="146.692" r="2.608"/>
					<g opacity="0.5">
						<path fill="#7F7F7F" d="M57.345,102.857c-1.771,1.463-1.659,6.01-1.674,8.025c-0.034,4.453,1.507,9.016,2.999,13.176
							c1.035,2.885,2.797,7.157,5.286,9.074c1.722,1.325,3.568,0.921,5.708,1.622c3.314,1.084,3.114,5.916,6.062,8.16
							c1.638,1.245,4.896,2.438,6.877,0.999c1.819-1.323,1.379-3.98,1.033-5.861c-0.259-1.396-0.437-2.874-0.94-4.198
							c-0.4-1.05-1.375-1.867-1.757-2.801c-1.196-2.927,0.252-4.193,2.552-5.681c4.272-2.763,4.69-7.07,4.732-11.764
							c0.016-1.826-0.06-3.383,1.756-4.129c2.348-0.967,6.106,0.004,7.908,1.521c2.919,2.458,6.93,5.554,8.963,0.422
							c0.977-2.464-0.196-7.657-2.561-8.785c3.063-0.031,5.085,4.236,7.745,5.246c2.323,0.884,5.43,0.979,6.618-1.479
							c0.539-1.114,0.976-3.851,0.455-4.972c-0.736-1.582-2.196-1.416-3.865-2.042c-4.078-1.531-5.102-1.941-4.374-6.323
							c0.253-1.521,0.922-3.325-0.306-4.585c-2.051-2.102-6.635-0.521-8.811,0.119c-2.89,0.848-5.141,1.905-6.132,2.14
							c-1.705,0.401-5.996-2.198-7.806-2.492c-2.785-0.451-4.867,2.677-7.46,1.729c-1.102-0.401-2.186-0.854-3.502-0.938
							c-1.569-0.102-2.417,0.086-3.755,0.733c-1.013,0.49-1.532,0.958-2.121,1.853c-0.325,0.493-0.683,2.258-1,2.509
							c-2.547,2.029-6.547-2.465-9.219-1.277c-1.783,0.794-2.994,4.384-3.19,6.225c-0.129,1.205,0.648,2.62,0.037,3.419"/>
						<path fill="none" stroke="#AFA78E" stroke-width="1.1864" stroke-miterlimit="10" d="M57.345,102.857
							c-1.771,1.463-1.659,6.01-1.674,8.025c-0.034,4.453,1.507,9.016,2.999,13.176c1.035,2.885,2.797,7.157,5.286,9.074
							c1.722,1.325,3.568,0.921,5.708,1.622c3.314,1.084,3.114,5.916,6.062,8.16c1.638,1.245,4.896,2.438,6.877,0.999
							c1.819-1.323,1.379-3.98,1.033-5.861c-0.259-1.396-0.437-2.874-0.94-4.198c-0.4-1.05-1.375-1.867-1.757-2.801
							c-1.196-2.927,0.252-4.193,2.552-5.681c4.272-2.763,4.69-7.07,4.732-11.764c0.016-1.826-0.06-3.383,1.756-4.129
							c2.348-0.967,6.106,0.004,7.908,1.521c2.919,2.458,6.93,5.554,8.963,0.422c0.977-2.464-0.196-7.657-2.561-8.785
							c3.063-0.031,5.085,4.236,7.745,5.246c2.323,0.884,5.43,0.979,6.618-1.479c0.539-1.114,0.976-3.851,0.455-4.972
							c-0.736-1.582-2.196-1.416-3.865-2.042c-4.078-1.531-5.102-1.941-4.374-6.323c0.253-1.521,0.922-3.325-0.306-4.585
							c-2.051-2.102-6.635-0.521-8.811,0.119c-2.89,0.848-5.141,1.905-6.132,2.14c-1.705,0.401-5.996-2.198-7.806-2.492
							c-2.785-0.451-4.867,2.677-7.46,1.729c-1.102-0.401-2.186-0.854-3.502-0.938c-1.569-0.102-2.417,0.086-3.755,0.733
							c-1.013,0.49-1.532,0.958-2.121,1.853c-0.325,0.493-0.683,2.258-1,2.509c-2.547,2.029-6.547-2.465-9.219-1.277
							c-1.783,0.794-2.994,4.384-3.19,6.225c-0.129,1.205,0.648,2.62,0.037,3.419"/>
					</g>
				</g>
			</g>
			<g>
				
					<circle id="SVGID_5_" fill="none" stroke="#FFFFFF" stroke-width="1.3876" stroke-miterlimit="10" cx="108.3" cy="113.26" r="46.483"/>
			</g>
		</g>
	</g>
</g>
</svg>
