<?xml version="1.0" encoding="utf-8"?>
<!-- Generator: Adobe Illustrator 16.0.0, SVG Export Plug-In . SVG Version: 6.00 Build 0)  -->
<!DOCTYPE svg PUBLIC "-//W3C//DTD SVG 1.1//EN" "http://www.w3.org/Graphics/SVG/1.1/DTD/svg11.dtd">
<svg version="1.1" id="Capa_1" xmlns="http://www.w3.org/2000/svg" xmlns:xlink="http://www.w3.org/1999/xlink" x="0px" y="0px"
	 width="95.833px" height="95.833px" viewBox="52 56 95.833 95.833" enable-background="new 52 56 95.833 95.833"
	 xml:space="preserve">
<circle fill="#FB0000" cx="-27.667" cy="185.667" r="77.5"/>
<g id="INSTAGRAM" display="none">
	<path display="inline" fill="none" stroke="#FFFFFF" stroke-width="6" stroke-miterlimit="10" d="M134.396,127.854
		c0,6.978-15.479,12.635-34.565,12.635l0,0c-19.085,0-34.566-5.657-34.566-12.635V76.5c0-6.998,15.481-12.657,34.566-12.657l0,0
		c19.085,0,34.565,5.659,34.565,12.657V127.854z"/>
	<path display="inline" fill="none" stroke="#FFFFFF" stroke-width="6" stroke-miterlimit="10" d="M117.865,103.669
		c0,9.558-7.736,17.283-17.282,17.283S83.3,113.227,83.3,103.669c0-9.534,7.738-17.283,17.283-17.283
		S117.865,94.135,117.865,103.669z"/>
	<path display="inline" fill="#FFFFFF" d="M124.252,80.938c0,2.091-1.678,3.757-3.757,3.757c-2.078,0-3.757-1.666-3.757-3.757
		c0-2.065,1.679-3.757,3.757-3.757C122.574,77.181,124.252,78.872,124.252,80.938z"/>
</g>
<path id="FACEBOOK" display="none" fill="#FFFFFF" d="M76.918,96.606l9.958,0.377v50.344l17.284-0.376v-49.78l11.645-0.565
	l-0.188-11.458l-11.271,0.187l-0.187-8.642c0,0,0.187-2.442,12.396-2.442c0-10.144,0.377-12.211,0.377-12.211
	s-7.891-1.502-16.909,0.376c-2.252,0.563-13.526,0-12.774,23.294c-3.005,0-10.52,0.189-10.52,0.189L76.918,96.606z"/>
<g id="WEB">
	<path fill="none" stroke="#FFFFFF" stroke-width="3" stroke-miterlimit="10" d="M110.593,148.053
		c17.089-3.923,30.486-17.236,34.231-34.215c-5.241,4.414-13.789,7.938-24.422,9.957
		C118.425,134.314,114.926,142.791,110.593,148.053z"/>
	<path fill="none" stroke="#FFFFFF" stroke-width="3" stroke-miterlimit="10" d="M55.844,114.236
		c3.98,17.236,17.893,30.738,35.529,34.168c-4.439-5.166-8.002-13.713-10.039-24.352C70.315,122.175,61.392,118.65,55.844,114.236z"
		/>
	<path fill="none" stroke="#FFFFFF" stroke-width="3" stroke-miterlimit="10" d="M144.824,94.583
		c-3.635-16.438-16.355-29.359-32.68-33.715c3.82,5.612,6.838,13.896,8.535,23.852C131.18,86.716,139.63,90.239,144.824,94.583z"/>
	<path fill="none" stroke="#FFFFFF" stroke-width="3" stroke-miterlimit="10" d="M89.881,60.411
		c-16.912,3.91-30.173,17.03-34.037,33.773c5.501-4.368,14.3-7.866,25.185-9.769C82.791,74.294,85.937,65.976,89.881,60.411z"/>
	<path fill="none" stroke="#FFFFFF" stroke-width="3" stroke-miterlimit="10" d="M79.456,104.21
		c-0.006-0.259-0.035-0.493-0.035-0.751c0-6.74,0.586-13.174,1.608-19.044c-10.885,1.903-19.684,5.401-25.185,9.769
		c-0.746,3.24-1.221,6.575-1.221,10.026H79.456z"/>
	<path fill="none" stroke="#FFFFFF" stroke-width="3" stroke-miterlimit="10" d="M79.456,104.21H54.624
		c0,3.452,0.475,6.787,1.221,10.026c5.547,4.414,14.471,7.938,25.49,9.816C80.171,117.971,79.497,111.301,79.456,104.21z"/>
	<path fill="none" stroke="#FFFFFF" stroke-width="3" stroke-miterlimit="10" d="M122.217,104.21
		c-0.042,6.976-0.681,13.573-1.813,19.585c10.632-2.021,19.18-5.543,24.421-9.957c0.687-3.1,1.099-6.316,1.099-9.628H122.217z"/>
	<path fill="none" stroke="#FFFFFF" stroke-width="3" stroke-miterlimit="10" d="M122.253,103.459c0,0.258-0.028,0.492-0.036,0.751
		h23.706c0-3.31-0.413-6.528-1.099-9.627c-5.194-4.344-13.645-7.867-24.145-9.863C121.678,90.52,122.253,96.813,122.253,103.459z"/>
	<path fill="none" stroke="#FFFFFF" stroke-width="3" stroke-miterlimit="10" d="M100.086,125.627c-0.131,0-0.248,0-0.377,0v23.623
		c0.195,0,0.371,0.047,0.564,0.047c3.563,0,6.991-0.494,10.319-1.244c4.333-5.262,7.832-13.738,9.811-24.258
		C114.182,124.945,107.328,125.627,100.086,125.627z"/>
	<path fill="none" stroke="#FFFFFF" stroke-width="3" stroke-miterlimit="10" d="M99.709,125.627
		c-6.499-0.023-12.68-0.588-18.375-1.574c2.037,10.639,5.6,19.186,10.039,24.352c2.693,0.539,5.488,0.8,8.335,0.847L99.709,125.627
		L99.709,125.627z"/>
	<path fill="none" stroke="#FFFFFF" stroke-width="3" stroke-miterlimit="10" d="M99.709,82.818v-23.63
		c-3.387,0.036-6.656,0.495-9.828,1.222c-3.944,5.565-7.09,13.883-8.852,24.004C86.805,83.405,93.099,82.841,99.709,82.818z"/>
	<path fill="none" stroke="#FFFFFF" stroke-width="3" stroke-miterlimit="10" d="M99.709,59.188v23.629
		c0.129,0,0.246-0.023,0.377-0.023c7.355,0,14.295,0.705,20.594,1.925c-1.695-9.956-4.714-18.24-8.535-23.852
		c-3.806-1.021-7.737-1.737-11.871-1.737C100.08,59.13,99.904,59.188,99.709,59.188z"/>
	<path fill="none" stroke="#FFFFFF" stroke-width="3" stroke-miterlimit="10" d="M79.456,104.21
		c0.041,7.091,0.715,13.761,1.878,19.843c5.695,0.986,11.875,1.551,18.375,1.574V104.21H79.456z"/>
	<path fill="none" stroke="#FFFFFF" stroke-width="3" stroke-miterlimit="10" d="M99.709,82.818
		c-6.61,0.023-12.904,0.587-18.68,1.597c-1.021,5.87-1.608,12.304-1.608,19.044c0,0.258,0.029,0.492,0.035,0.751h20.253V82.818z"/>
	<path fill="none" stroke="#FFFFFF" stroke-width="3" stroke-miterlimit="10" d="M99.709,125.627c0.129,0,0.246,0,0.377,0
		c7.242,0,14.096-0.682,20.316-1.832c1.134-6.012,1.771-12.609,1.813-19.585H99.709V125.627z"/>
	<path fill="none" stroke="#FFFFFF" stroke-width="3" stroke-miterlimit="10" d="M120.68,84.72
		c-6.299-1.221-13.238-1.925-20.594-1.925c-0.131,0-0.248,0.023-0.377,0.023v21.392h22.508c0.008-0.259,0.036-0.493,0.036-0.751
		C122.253,96.813,121.678,90.52,120.68,84.72z"/>
</g>
<g id="TELÉFONO">
	<path fill="#FFFFFF" d="M204.807,124.334l11.524,24.563c0,0,10.26-0.75,7.76-7.771c-2.501-7.021-8.519-19.045-12.022-20.029
		C207.813,122.832,204.807,124.334,204.807,124.334z"/>
	<path fill="#FFFFFF" d="M235.861,189.452l11.525,24.562c0,0,10.26-0.75,7.76-7.771s-8.52-19.046-12.023-20.032
		C238.868,187.947,235.861,189.452,235.861,189.452z"/>
	<path fill="#FFFFFF" d="M200.797,126.85l11.271,22.541c0,0-2.502,4.252-2.002,7.256c1.004,4.274,15.779,32.076,15.779,32.076
		s6.258,3.5,7.262,3.992c1.756,4.018,10.521,24.307,10.521,24.307s-9.77,2.722-23.542-9.512c-3.755-4.51-26.546-31.563-27.05-56.615
		C192.784,145.376,193.283,132.366,200.797,126.85z"/>
</g>
<image overflow="visible" enable-background="new    " width="200" height="200" xlink:href="57AD76B2.png"  transform="matrix(0.4 0 0 0.4 -130.5005 41.0005)">
</image>
</svg>
